<svg width="91" height="67" viewBox="0 0 91 67" fill="none" xmlns="http://www.w3.org/2000/svg">
<g clip-path="url(#clip0_1_186)">
<path d="M18.3964 11.49C8.50331 11.49 0.484741 19.4461 0.484741 29.2622C0.484741 39.0783 8.50331 47.0344 18.3964 47.0344C28.2896 47.0344 36.3082 39.0783 36.3082 29.2622C36.3082 19.4461 28.2896 11.49 18.3964 11.49ZM18.3964 41.3038C11.6933 41.3038 6.26031 35.9131 6.26031 29.2622C6.26031 22.6113 11.6933 17.2206 18.3964 17.2206C25.0996 17.2206 30.5326 22.6113 30.5326 29.2622C30.5326 35.9131 25.0996 41.3038 18.3964 41.3038Z" fill="white"/>
<path d="M18.3965 47.5122C8.25128 47.5122 0 39.3252 0 29.2622C0 19.1992 8.25128 11.009 18.3965 11.009C28.5417 11.009 36.793 19.196 36.793 29.2622C36.793 39.3284 28.5417 47.5154 18.3965 47.5154V47.5122ZM18.3965 11.971C8.78779 11.971 0.969598 19.7283 0.969598 29.2622C0.969598 38.7961 8.78779 46.5533 18.3965 46.5533C28.0052 46.5533 35.8234 38.7961 35.8234 29.2622C35.8234 19.7283 28.0052 11.971 18.3965 11.971ZM18.3965 41.7848C11.438 41.7848 5.77557 36.1665 5.77557 29.2622C5.77557 22.3579 11.438 16.7396 18.3965 16.7396C25.355 16.7396 31.0174 22.3579 31.0174 29.2622C31.0174 36.1665 25.355 41.7848 18.3965 41.7848ZM18.3965 17.7016C11.9713 17.7016 6.74517 22.887 6.74517 29.2622C6.74517 35.6373 11.9713 40.8228 18.3965 40.8228C24.8217 40.8228 30.0478 35.6373 30.0478 29.2622C30.0478 22.887 24.8217 17.7016 18.3965 17.7016Z" fill="url(#paint0_radial_1_186)"/>
<path d="M24.366 0.718325L42.0321 0.663809L64.1357 0.596466L87.0537 0.529123C87.0537 0.529123 91.9696 0.798496 90.0498 2.07481C88.13 3.35433 86.4267 5.46121 85.7965 8.96946C85.1663 12.4777 80.8095 55.7441 80.8095 55.7441C80.8095 55.7441 80.8419 66.3458 74.003 66.3683L66.9701 66.3875L39.5984 66.4709L32.5623 66.4933C25.7267 66.5126 25.6911 55.9108 25.6911 55.9108C25.6911 55.9108 19.8315 2.50452 17.9053 1.23783C15.9758 -0.0288627 24.3628 0.718325 24.3628 0.718325H24.366Z" fill="white"/>
<path d="M25.1934 55.9686C22.8954 35.0409 18.975 3.2934 17.6305 1.65792C17.1005 1.30838 17.0714 0.958838 17.1425 0.72474C17.2847 0.256545 17.7759 0 19.9705 0C21.9194 0 24.311 0.21165 24.366 0.218063L87.0796 0.0288613C88.715 0.118652 90.7188 0.413679 90.9709 1.318C91.0485 1.60661 91.0032 2.04274 90.331 2.4917C88.1785 3.92514 86.8178 6.13785 86.2942 9.05925C85.6769 12.5098 81.359 55.3625 81.3169 55.7441C81.3169 55.8563 81.3169 58.5051 80.454 61.2021C79.2743 64.9027 77.0442 66.8621 74.0062 66.8717L32.5688 66.9968H32.5462C25.3065 66.9968 25.1901 56.0263 25.1934 55.9654V55.9686ZM87.0537 1.03259L24.3207 1.21859C24.2949 1.21859 21.8709 1.00373 19.9672 1.00373C19.1625 1.00373 18.6777 1.04222 18.3933 1.0839C20.465 4.83588 24.8605 43.6993 26.1985 55.914C26.1985 56.0135 26.3019 65.9963 32.5429 65.9963V66.4997L32.5623 65.9963L73.9997 65.8712C80.2536 65.852 80.3021 55.8531 80.3053 55.6992C80.4831 53.9322 84.6717 12.3719 85.2955 8.88609C85.8708 5.68248 87.3769 3.25171 89.7654 1.66113C89.8268 1.61944 89.872 1.58417 89.9076 1.55531C89.5003 1.33083 88.2593 1.09994 87.0537 1.03259Z" fill="black"/>
<path d="M64.9793 12.5803L71.0328 12.5611C71.2784 12.5611 71.4788 12.3206 71.4756 12.0255C71.4756 11.7305 71.2752 11.49 71.0296 11.49L64.9793 11.5092C64.7336 11.5092 64.53 11.7497 64.53 12.048C64.53 12.343 64.7336 12.5835 64.9793 12.5835V12.5803Z" fill="black"/>
<path d="M65.0019 19.305L71.0522 19.2858C71.2978 19.2858 71.4982 19.0453 71.4982 18.7502C71.4982 18.4552 71.2946 18.2115 71.049 18.2147L64.9987 18.2339C64.753 18.2339 64.5494 18.4744 64.5527 18.7727C64.5527 19.0677 64.7563 19.3082 65.0019 19.3082V19.305Z" fill="black"/>
<path d="M65.0213 26.0265L71.0716 26.0072C71.3172 26.0072 71.5176 25.7667 71.5176 25.4685C71.5176 25.1703 71.3172 24.933 71.0716 24.933L65.018 24.9522C64.7724 24.9522 64.572 25.1927 64.572 25.4877C64.572 25.786 64.7756 26.0233 65.0213 26.0233V26.0265Z" fill="black"/>
<path d="M65.0407 32.748L71.0942 32.7287C71.3398 32.7287 71.5402 32.4882 71.537 32.19C71.537 31.895 71.3366 31.6544 71.091 31.6577L65.0407 31.6737C64.795 31.6737 64.5914 31.9142 64.5914 32.2124C64.5914 32.5107 64.795 32.748 65.0407 32.748Z" fill="black"/>
<path d="M65.0633 39.4695L71.1136 39.4502C71.3592 39.4502 71.5596 39.2097 71.5596 38.9147C71.5596 38.6197 71.356 38.3792 71.1104 38.3792L65.0601 38.3984C64.8144 38.3984 64.6108 38.6421 64.6141 38.9371C64.6141 39.2322 64.8177 39.4727 65.0633 39.4727V39.4695Z" fill="black"/>
<path d="M65.0827 46.1909L71.133 46.1717C71.3786 46.1717 71.579 45.9312 71.579 45.6362C71.579 45.3379 71.3786 45.1006 71.133 45.1006L65.0794 45.1199C64.8338 45.1199 64.6334 45.3604 64.6334 45.6586C64.6334 45.9536 64.837 46.1941 65.0827 46.1941V46.1909Z" fill="black"/>
<path d="M65.1021 52.9124L71.1556 52.8964C71.4012 52.8964 71.6016 52.6559 71.5984 52.3577C71.5984 52.0626 71.398 51.8221 71.1523 51.8253L65.1021 51.8446C64.8564 51.8446 64.6528 52.0851 64.656 52.3801C64.656 52.6783 64.8564 52.9156 65.1053 52.9156L65.1021 52.9124Z" fill="black"/>
<path d="M65.1215 59.6371L71.1718 59.6179C71.4174 59.6179 71.6178 59.3774 71.6178 59.0791C71.6178 58.7809 71.4142 58.5436 71.1686 58.5436L65.1183 58.5628C64.8727 58.5628 64.669 58.8033 64.6723 59.1016C64.6723 59.3966 64.8759 59.6371 65.1215 59.6371Z" fill="black"/>
<path d="M81.4171 49.7313C81.0486 53.3807 80.8095 55.7505 80.8095 55.7505C80.8095 55.7505 80.8418 66.3522 74.0029 66.3747L32.5655 66.4998C25.7298 66.519 25.6943 55.9173 25.6943 55.9173C25.6943 55.9173 25.439 53.5923 25.0188 49.9045L81.4171 49.7345V49.7313Z" fill="#CACACA"/>
<path d="M25.1933 55.9686C25.1933 55.9686 24.938 53.6436 24.5179 49.959C24.5017 49.8179 24.5469 49.6768 24.6439 49.571C24.7376 49.4651 24.8766 49.4042 25.0188 49.401L81.4171 49.2343C81.5464 49.2343 81.6983 49.292 81.7952 49.3978C81.8922 49.5036 81.9375 49.6447 81.9245 49.7858L81.3169 55.7505C81.3169 55.8627 81.3169 58.5116 80.454 61.2085C79.2743 64.9092 77.0442 66.8685 74.0061 66.8782L32.5688 67.0032H32.5461C25.3065 67.0032 25.1901 56.0327 25.1933 55.9718V55.9686ZM25.5844 50.4015C25.9658 53.7655 26.1985 55.8627 26.2017 55.9141C26.2017 56.0135 26.3116 65.9963 32.5461 65.9963V66.4998L32.5655 65.9963L74.0029 65.8712C80.2568 65.852 80.3053 55.8531 80.3085 55.6992L80.8612 50.2348L25.5844 50.4015Z" fill="black"/>
</g>
<defs>
<radialGradient id="paint0_radial_1_186" cx="0" cy="0" r="1" gradientUnits="userSpaceOnUse" gradientTransform="translate(18.3965 29.2622) scale(18.3965 18.2532)">
<stop offset="0.57" stop-color="#130C0E"/>
<stop offset="0.8" stop-color="#130C0E"/>
<stop offset="1" stop-color="#130C0E"/>
</radialGradient>
<clipPath id="clip0_1_186">
<rect width="91" height="67" fill="white"/>
</clipPath>
</defs>
</svg>
