<svg width="138" height="66" viewBox="0 0 138 66" fill="none" xmlns="http://www.w3.org/2000/svg">
<path d="M19.3537 0.649573C16.6144 -0.118244 20.0406 3.93024 20.3858 5.5713C20.4444 5.85266 20.4973 6.14894 20.2714 6.37059C19.9236 6.71149 19.0716 6.74252 18.3174 6.69616C17.4455 6.64014 16.5599 6.52015 15.703 6.33958C15.2896 6.25194 14.8527 6.14794 14.4617 6.19304C13.7448 6.2751 13.5738 6.77667 13.5795 7.20856C13.5875 7.95065 13.7955 8.71155 13.6509 9.4334C13.51 10.1567 12.9458 10.864 11.8127 11.1253C10.6918 11.3848 9.29608 11.1622 7.99908 11.0104C7.534 10.9569 7.01568 10.9197 6.68395 11.0677C6.33839 11.224 6.313 11.5265 6.31477 11.7987C6.31064 13.316 6.30906 14.831 6.30493 16.3484C4.09532 16.4334 2.00463 16.8104 0.244234 17.4443L2.11331 18.5966C2.11331 18.5966 96.6137 57.6169 116.5 64.7218C117.094 64.9335 117.673 65.1636 118.243 65.397C119.355 64.7182 119.831 63.704 119.516 62.6834C119.48 62.5588 119.43 62.4284 119.49 62.3188C119.585 62.1476 119.911 62.0727 120.221 62.0362C121.791 61.8548 123.745 62.2545 125.028 61.7715C126.002 61.4048 126.246 60.6132 125.957 59.885C125.669 59.1568 124.938 58.4737 124.227 57.8093C123.785 57.3937 123.339 56.8462 123.827 56.5376C124.098 56.3689 124.566 56.3478 125.005 56.3494C127.097 56.3648 129.35 56.6958 131.214 56.3101C131.651 56.2218 132.072 56.0819 132.279 55.8492C132.571 55.5169 132.373 55.073 132.128 54.6785C131.3 53.3375 129.997 52.0665 128.749 50.797C128.622 50.6666 128.488 50.5232 128.527 50.391C128.576 50.215 128.897 50.1347 129.193 50.0824C132.051 49.5714 135.419 49.5377 137.592 48.4446C136.316 47.6344 134.793 46.9448 133.143 46.4273C133.143 46.4273 43.6192 7.44439 19.3588 0.644765L19.3537 0.649573Z" fill="#779D77"/>
</svg>
